{
 "accessors": [
  {
   "componentType": 5126,
   "type": "VEC3",
   "count": 576,
   "max": [
    13.146122932434082,
    13.146122932434082,
    5.290364742279053
   ],
   "min": [
    -13.146122932434082,
    -13.146122932434082,
    0
   ],
   "bufferView": 0
  },
  {
   "componentType": 5126,
   "type": "VEC3",
   "count": 576,
   "bufferView": 1
  },
  {
   "componentType": 5126,
   "type": "VEC2",
   "count": 576,
   "bufferView": 2
  },
  {
   "componentType": 5123,
   "type": "SCALAR",
   "count": 576,
   "bufferView": 3
  },
  {
   "componentType": 5126,
   "type": "VEC3",
   "count": 432,
   "max": [
    11.629935264587402,
    11.629934310913086,
    20.326017379760742
   ],
   "min": [
    -11.629935264587402,
    -11.629936218261719,
    0
   ],
   "bufferView": 4
  },
  {
   "componentType": 5126,
   "type": "VEC3",
   "count": 432,
   "bufferView": 5
  },
  {
   "componentType": 5126,
   "type": "VEC2",
   "count": 432,
   "bufferView": 6
  },
  {
   "componentType": 5121,
   "type": "SCALAR",
   "count": 216,
   "bufferView": 7
  },
  {
   "componentType": 5123,
   "type": "SCALAR",
   "count": 216,
   "bufferView": 8
  },
  {
   "componentType": 5126,
   "type": "VEC3",
   "count": 17496,
   "max": [
    36.04637908935547,
    33.83946990966797,
    32.809871673583984
   ],
   "min": [
    -36.04637908935547,
    -33.839290618896484,
    -0.5743399858474731
   ],
   "bufferView": 9
  },
  {
   "componentType": 5126,
   "type": "VEC3",
   "count": 17496,
   "bufferView": 10
  },
  {
   "componentType": 5123,
   "type": "SCALAR",
   "count": 17496,
   "bufferView": 11
  },
  {
   "componentType": 5126,
   "type": "VEC3",
   "count": 6336,
   "max": [
    33.31285858154297,
    26.119260787963867,
    20.01634979248047
   ],
   "min": [
    -18.4926700592041,
    -29.497800827026367,
    -17.42089080810547
   ],
   "bufferView": 12
  },
  {
   "componentType": 5126,
   "type": "VEC3",
   "count": 6336,
   "bufferView": 13
  },
  {
   "componentType": 5123,
   "type": "SCALAR",
   "count": 6336,
   "bufferView": 14
  },
  {
   "componentType": 5126,
   "type": "VEC3",
   "count": 65502,
   "max": [
    32.360469818115234,
    30.5504093170166,
    29.077749252319336
   ],
   "min": [
    -32.09246063232422,
    -29.899099349975586,
    -12.216429710388184
   ],
   "bufferView": 15
  },
  {
   "componentType": 5126,
   "type": "VEC3",
   "count": 65502,
   "bufferView": 16
  },
  {
   "componentType": 5123,
   "type": "SCALAR",
   "count": 65502,
   "bufferView": 17
  }
 ],
 "asset": {
  "version": "2.0",
  "generator": "clara.io"
 },
 "bufferViews": [
  {
   "buffer": 0,
   "byteOffset": 0,
   "byteLength": 6912,
   "target": 34962,
   "byteStride": 12
  },
  {
   "buffer": 0,
   "byteOffset": 6912,
   "byteLength": 6912,
   "target": 34962,
   "byteStride": 12
  },
  {
   "buffer": 0,
   "byteOffset": 13824,
   "byteLength": 4608,
   "target": 34962,
   "byteStride": 8
  },
  {
   "buffer": 0,
   "byteOffset": 18432,
   "byteLength": 1152,
   "target": 34963
  },
  {
   "buffer": 0,
   "byteOffset": 19584,
   "byteLength": 5184,
   "target": 34962,
   "byteStride": 12
  },
  {
   "buffer": 0,
   "byteOffset": 24768,
   "byteLength": 5184,
   "target": 34962,
   "byteStride": 12
  },
  {
   "buffer": 0,
   "byteOffset": 29952,
   "byteLength": 3456,
   "target": 34962,
   "byteStride": 8
  },
  {
   "buffer": 0,
   "byteOffset": 33408,
   "byteLength": 216,
   "target": 34963
  },
  {
   "buffer": 0,
   "byteOffset": 33624,
   "byteLength": 432,
   "target": 34963
  },
  {
   "buffer": 0,
   "byteOffset": 34056,
   "byteLength": 209952,
   "target": 34962,
   "byteStride": 12
  },
  {
   "buffer": 0,
   "byteOffset": 244008,
   "byteLength": 209952,
   "target": 34962,
   "byteStride": 12
  },
  {
   "buffer": 0,
   "byteOffset": 453960,
   "byteLength": 34992,
   "target": 34963
  },
  {
   "buffer": 0,
   "byteOffset": 488952,
   "byteLength": 76032,
   "target": 34962,
   "byteStride": 12
  },
  {
   "buffer": 0,
   "byteOffset": 564984,
   "byteLength": 76032,
   "target": 34962,
   "byteStride": 12
  },
  {
   "buffer": 0,
   "byteOffset": 641016,
   "byteLength": 12672,
   "target": 34963
  },
  {
   "buffer": 0,
   "byteOffset": 653688,
   "byteLength": 786024,
   "target": 34962,
   "byteStride": 12
  },
  {
   "buffer": 0,
   "byteOffset": 1439712,
   "byteLength": 786024,
   "target": 34962,
   "byteStride": 12
  },
  {
   "buffer": 0,
   "byteOffset": 2225736,
   "byteLength": 131004,
   "target": 34963
  }
 ],
 "buffers": [
  {
   "byteLength": 2356740,
   "uri": "data:application/octet-stream;base64,"
  }
 ],
 "materials": [
  {
   "name": "mat4",
   "pbrMetallicRoughness": {
    "baseColorFactor": [
     0.27450980392156865,
     0.4823529411764706,
     0.050980392156862744,
     1
    ],
    "roughnessFactor": 0.1961,
    "metallicFactor": 0
   },
   "doubleSided": true
  },
  {
   "name": "mat1",
   "pbrMetallicRoughness": {
    "baseColorFactor": [
     0.21568627450980393,
     0.37254901960784315,
     0.050980392156862744,
     1
    ],
    "roughnessFactor": 0.1961,
    "metallicFactor": 0
   },
   "doubleSided": true
  },
  {
   "name": "mat3",
   "pbrMetallicRoughness": {
    "baseColorFactor": [
     0.7372549019607844,
     0.29411764705882354,
     0,
     1
    ],
    "roughnessFactor": 0.1961,
    "metallicFactor": 0
   },
   "doubleSided": true
  },
  {
   "name": "02 - Default",
   "pbrMetallicRoughness": {
    "baseColorFactor": [
     0.39215686274509803,
     0.2901960784313726,
     0.17647058823529413,
     1
    ],
    "roughnessFactor": 0.1961,
    "metallicFactor": 0
   },
   "doubleSided": true
  },
  {
   "name": "Material",
   "pbrMetallicRoughness": {
    "baseColorFactor": [
     0.8631181388954168,
     0.559438665608309,
     0.8452233341855746,
     1
    ],
    "roughnessFactor": 0.5345,
    "metallicFactor": 0
   },
   "doubleSided": true
  }
 ],
 "meshes": [
  {
   "primitives": [
    {
     "indices": 3,
     "material": 2,
     "mode": 4,
     "attributes": {
      "POSITION": 0,
      "NORMAL": 1,
      "TEXCOORD_0": 2
     }
    }
   ]
  },
  {
   "primitives": [
    {
     "indices": 7,
     "material": 2,
     "mode": 4,
     "attributes": {
      "POSITION": 4,
      "NORMAL": 5,
      "TEXCOORD_0": 6
     }
    },
    {
     "indices": 8,
     "material": 3,
     "mode": 4,
     "attributes": {
      "POSITION": 4,
      "NORMAL": 5,
      "TEXCOORD_0": 6
     }
    }
   ]
  },
  {
   "primitives": [
    {
     "indices": 11,
     "material": 4,
     "mode": 4,
     "attributes": {
      "POSITION": 9,
      "NORMAL": 10
     }
    }
   ]
  },
  {
   "primitives": [
    {
     "indices": 14,
     "material": 0,
     "mode": 4,
     "attributes": {
      "POSITION": 12,
      "NORMAL": 13
     }
    }
   ]
  },
  {
   "primitives": [
    {
     "indices": 17,
     "material": 1,
     "mode": 4,
     "attributes": {
      "POSITION": 15,
      "NORMAL": 16
     }
    }
   ]
  }
 ],
 "nodes": [
  {
   "name": "Tube002",
   "translation": [
    0.3132779896259308,
    16.563800811767578,
    -1.358430027961731
   ],
   "rotation": [
    -0.7071067811865475,
    0,
    0,
    0.7071067811865476
   ],
   "mesh": 0
  },
  {
   "name": "Pot",
   "translation": [
    0.3132779896259308,
    -2.555109901436481e-9,
    -1.358430027961731
   ],
   "rotation": [
    -0.7071067811865475,
    0,
    0,
    0.7071067811865476
   ],
   "mesh": 1
  },
  {
   "name": "Flowers",
   "translation": [
    -4.554120063781738,
    31.43239974975586,
    -0.058736201375722885
   ],
   "rotation": [
    -0.7071067811865475,
    0,
    0,
    0.7071067811865476
   ],
   "mesh": 2
  },
  {
   "name": "Grass",
   "translation": [
    -4.554120063781738,
    31.43239974975586,
    -0.058736201375722885
   ],
   "rotation": [
    -0.7071067811865475,
    0,
    0,
    0.7071067811865476
   ],
   "mesh": 3
  },
  {
   "name": "Stems",
   "translation": [
    -4.554120063781738,
    31.43239974975586,
    -0.058736201375722885
   ],
   "rotation": [
    -0.7071067811865475,
    0,
    0,
    0.7071067811865476
   ],
   "mesh": 4
  }
 ],
 "scene": 0,
 "scenes": [
  {
   "nodes": [
    0,
    1,
    2,
    3,
    4
   ]
  }
 ]
}