{
 "accessors": [
  {
   "componentType": 5126,
   "type": "VEC3",
   "count": 84,
   "max": [
    15.193374633789062,
    180,
    82.27182006835938
   ],
   "min": [
    11.193374633789062,
    0,
    18.271820068359375
   ],
   "bufferView": 2
  },
  {
   "componentType": 5126,
   "type": "VEC3",
   "count": 84,
   "bufferView": 3
  },
  {
   "componentType": 5126,
   "type": "VEC2",
   "count": 84,
   "bufferView": 4
  },
  {
   "componentType": 5121,
   "type": "SCALAR",
   "count": 84,
   "bufferView": 5
  },
  {
   "componentType": 5126,
   "type": "VEC3",
   "count": 36,
   "max": [
    13.02500057220459,
    172,
    74.26863861083984
   ],
   "min": [
    11.97499942779541,
    8,
    26.26864242553711
   ],
   "bufferView": 6
  },
  {
   "componentType": 5126,
   "type": "VEC3",
   "count": 36,
   "bufferView": 7
  },
  {
   "componentType": 5126,
   "type": "VEC2",
   "count": 36,
   "bufferView": 8
  },
  {
   "componentType": 5121,
   "type": "SCALAR",
   "count": 36,
   "bufferView": 9
  }
 ],
 "asset": {
  "version": "2.0",
  "generator": "clara.io"
 },
 "bufferViews": [
  {
   "buffer": 0,
   "byteOffset": 0,
   "byteLength": 15982
  },
  {
   "buffer": 0,
   "byteOffset": 15984,
   "byteLength": 7809
  },
  {
   "buffer": 0,
   "byteOffset": 23796,
   "byteLength": 1008,
   "target": 34962,
   "byteStride": 12
  },
  {
   "buffer": 0,
   "byteOffset": 24804,
   "byteLength": 1008,
   "target": 34962,
   "byteStride": 12
  },
  {
   "buffer": 0,
   "byteOffset": 25812,
   "byteLength": 672,
   "target": 34962,
   "byteStride": 8
  },
  {
   "buffer": 0,
   "byteOffset": 26484,
   "byteLength": 84,
   "target": 34963
  },
  {
   "buffer": 0,
   "byteOffset": 26568,
   "byteLength": 432,
   "target": 34962,
   "byteStride": 12
  },
  {
   "buffer": 0,
   "byteOffset": 27000,
   "byteLength": 432,
   "target": 34962,
   "byteStride": 12
  },
  {
   "buffer": 0,
   "byteOffset": 27432,
   "byteLength": 288,
   "target": 34962,
   "byteStride": 8
  },
  {
   "buffer": 0,
   "byteOffset": 27720,
   "byteLength": 36,
   "target": 34963
  }
 ],
 "buffers": [
  {
   "byteLength": 27756,
   "uri": "data:application/octet-stream;base64,"
  }
 ],
 "images": [
  {
   "name": "Specchio_sweethome3d_window_mirror_2.jpeg",
   "bufferView": 0,
   "mimeType": "image/jpeg"
  },
  {
   "name": "AO_ROUGH_METAL_100.jpg",
   "bufferView": 1,
   "mimeType": "image/jpeg"
  }
 ],
 "materials": [
  {
   "name": "1_1Mat",
   "pbrMetallicRoughness": {
    "baseColorFactor": [
     0.16862745098039217,
     0.06666666666666667,
     0.03137254901960784,
     1
    ],
    "roughnessFactor": 0.3015,
    "metallicFactor": 0
   }
  },
  {
   "name": "sweethome3d_window_mirror_2Mat",
   "pbrMetallicRoughness": {
    "baseColorFactor": [
     0.8,
     0.8,
     0.8,
     1
    ],
    "baseColorTexture": {
     "index": 0,
     "texCoord": 0
    },
    "roughnessFactor": 0.3015,
    "metallicFactor": 0,
    "metallicRoughnessTexture": {
     "index": 1
    }
   }
  }
 ],
 "meshes": [
  {
   "primitives": [
    {
     "indices": 3,
     "material": 0,
     "mode": 4,
     "attributes": {
      "POSITION": 0,
      "NORMAL": 1,
      "TEXCOORD_0": 2
     }
    }
   ]
  },
  {
   "primitives": [
    {
     "indices": 7,
     "material": 1,
     "mode": 4,
     "attributes": {
      "POSITION": 4,
      "NORMAL": 5,
      "TEXCOORD_0": 6
     }
    }
   ]
  }
 ],
 "nodes": [
  {
   "name": "Specchio_root",
   "scale": [
    0.009999999776482582,
    0.009999999776482582,
    0.009999999776482582
   ],
   "children": [
    1,
    2
   ]
  },
  {
   "name": "1_1",
   "mesh": 0
  },
  {
   "name": "sweethome3d_window_mirror",
   "mesh": 1
  }
 ],
 "samplers": [
  {
   "magFilter": 9729,
   "minFilter": 9987,
   "wrapS": 10497,
   "wrapT": 10497
  }
 ],
 "scene": 0,
 "scenes": [
  {
   "nodes": [
    0
   ]
  }
 ],
 "textures": [
  {
   "sampler": 0,
   "source": 0
  },
  {
   "sampler": 0,
   "source": 1
  }
 ]
}