{
 "accessors": [
  {
   "componentType": 5126,
   "type": "VEC3",
   "count": 25812,
   "max": [
    -14.326168060302734,
    55.5881462097168,
    13.935164451599121
   ],
   "min": [
    -69.59939575195312,
    -5.756649494171143,
    -13.047693252563477
   ],
   "bufferView": 0
  },
  {
   "componentType": 5126,
   "type": "VEC3",
   "count": 25812,
   "bufferView": 1
  },
  {
   "componentType": 5126,
   "type": "VEC2",
   "count": 25812,
   "bufferView": 2
  },
  {
   "componentType": 5123,
   "type": "SCALAR",
   "count": 38703,
   "bufferView": 3
  }
 ],
 "asset": {
  "version": "2.0",
  "generator": "clara.io"
 },
 "bufferViews": [
  {
   "buffer": 0,
   "byteOffset": 0,
   "byteLength": 309744,
   "target": 34962,
   "byteStride": 12
  },
  {
   "buffer": 0,
   "byteOffset": 309744,
   "byteLength": 309744,
   "target": 34962,
   "byteStride": 12
  },
  {
   "buffer": 0,
   "byteOffset": 619488,
   "byteLength": 206496,
   "target": 34962,
   "byteStride": 8
  },
  {
   "buffer": 0,
   "byteOffset": 825984,
   "byteLength": 77406,
   "target": 34963
  }
 ],
 "buffers": [
  {
   "byteLength": 903392,
   "uri": "data:application/octet-stream;base64,"
  }
 ],
 "materials": [
  {
   "name": "Physical",
   "pbrMetallicRoughness": {
    "roughnessFactor": 0.8,
    "metallicFactor": 0
   },
   "emissiveFactor": [
    0.5176470588235295,
    0.5176470588235295,
    0.5176470588235295
   ],
   "doubleSided": true
  }
 ],
 "meshes": [
  {
   "primitives": [
    {
     "indices": 3,
     "material": 0,
     "mode": 4,
     "attributes": {
      "POSITION": 0,
      "NORMAL": 1,
      "TEXCOORD_0": 2
     }
    }
   ]
  }
 ],
 "nodes": [
  {
   "name": "t+shirts",
   "children": [
    3
   ]
  },
  {
   "name": "LightPreset",
   "translation": [
    -0.0003918053407687694,
    0.24915747344493866,
    0.004437355790287256
   ]
  },
  {
   "name": "CameraPreset",
   "translation": [
    0.4192360043525696,
    0,
    0
   ]
  },
  {
   "name": "T_Shirt_male",
   "translation": [
    0.4192360043525696,
    0,
    0
   ],
   "scale": [
    0.009999999776482582,
    0.009999999776482582,
    0.009999999776482582
   ],
   "mesh": 0
  }
 ],
 "scene": 0,
 "scenes": [
  {
   "nodes": [
    0,
    1,
    2
   ]
  }
 ]
}